<?xml version="1.0" encoding="UTF-8" standalone="no"?>
<svg
   xmlns:sketch="http://www.bohemiancoding.com/sketch/ns"
   xmlns:dc="http://purl.org/dc/elements/1.1/"
   xmlns:cc="http://creativecommons.org/ns#"
   xmlns:rdf="http://www.w3.org/1999/02/22-rdf-syntax-ns#"
   xmlns:svg="http://www.w3.org/2000/svg"
   xmlns="http://www.w3.org/2000/svg"
   xmlns:sodipodi="http://sodipodi.sourceforge.net/DTD/sodipodi-0.dtd"
   xmlns:inkscape="http://www.inkscape.org/namespaces/inkscape"
   width="32px"
   height="32px"
   viewBox="0 0 32 32"
   version="1.1"
   id="svg11"
   sodipodi:docname="document-ok.svg"
   inkscape:version="0.92.2 (5c3e80d, 2017-08-06)">
  <metadata
     id="metadata15">
    <rdf:RDF>
      <cc:Work
         rdf:about="">
        <dc:format>image/svg+xml</dc:format>
        <dc:type
           rdf:resource="http://purl.org/dc/dcmitype/StillImage" />
      </cc:Work>
    </rdf:RDF>
  </metadata>
  <sodipodi:namedview
     pagecolor="#ffffff"
     bordercolor="#666666"
     borderopacity="1"
     objecttolerance="10"
     gridtolerance="10"
     guidetolerance="10"
     inkscape:pageopacity="0"
     inkscape:pageshadow="2"
     inkscape:window-width="716"
     inkscape:window-height="480"
     id="namedview13"
     showgrid="false"
     inkscape:zoom="7.375"
     inkscape:cx="16"
     inkscape:cy="16"
     inkscape:window-x="200"
     inkscape:window-y="11"
     inkscape:window-maximized="0"
     inkscape:current-layer="svg11" />
  <!-- Generator: Sketch 3.0.3 (7891) - http://www.bohemiancoding.com/sketch -->
  <title
     id="title2">icon 80 document checked</title>
  <desc
     id="desc4">Created with Sketch.</desc>
  <defs
     id="defs6" />
  <g
     id="Page-1"
     stroke="none"
     stroke-width="1"
     fill="none"
     fill-rule="evenodd"
     sketch:type="MSPage">
    <g
       id="icon-80-document-checked"
       sketch:type="MSArtboardGroup"
       style="fill:#8cc63f">
      <path
         d="M 17.257162,29 H 6.9974219 C 5.8909254,29 5,28.101288 5,26.99267 V 4.0073299 C 5,2.8983383 5.8966662,2 7.0027601,2 H 17.5 V 2 H 18 l 6,7 v 0.5 11.099707 c 1.780838,0.910358 3,2.76295 3,4.900293 0,3.037566 -2.462434,5.5 -5.5,5.5 -1.707937,0 -3.234046,-0.778497 -4.242838,-2 z M 16.599709,28 H 6.9999602 C 6.4547089,28 6,27.554319 6,27.004543 V 3.995457 C 6,3.4552629 6.4457352,3 6.9955775,3 H 17 V 7.9940809 C 17,9.1134452 17.894496,10 18.997913,10 H 23 V 20.207032 C 22.523168,20.072167 22.020012,20 21.5,20 18.462434,20 16,22.462434 16,25.5 c 0,0.900223 0.216279,1.749932 0.599709,2.5 z M 18,3.5 V 7.9912152 C 18,8.5483517 18.450651,9 18.996739,9 h 3.703212 z M 21.5,30 C 23.985281,30 26,27.985281 26,25.5 26,23.014718 23.985281,21 21.5,21 19.014718,21 17,23.014718 17,25.5 17,27.985281 19.014718,30 21.5,30 Z M 21,28.242641 18.646447,25.889087 19.37868,25.156854 21,26.778175 l 3.12132,-3.121321 0.732233,0.732233 z"
         id="document-checked"
         sketch:type="MSShapeGroup"
         inkscape:connector-curvature="0" />
    </g>
  </g>
</svg>
